<?xml version="1.0" encoding="utf-8"?>
<!-- Generator: Adobe Illustrator 19.2.0, SVG Export Plug-In . SVG Version: 6.00 Build 0)  -->
<svg version="1.1" id="Layer_1" xmlns="http://www.w3.org/2000/svg" xmlns:xlink="http://www.w3.org/1999/xlink" x="0px" y="0px"
	 viewBox="0 0 1500 1500" style="enable-background:new 0 0 1500 1500;" xml:space="preserve">
<g>
	<path d="M834.2,937c-2.8,36.1-13.3,70-30.2,100c44.3-8.3,84.3-26.6,119-52.6c-4.4-15.3-6.6-31.1-7.5-47.4H834.2z"/>
	<path d="M665,792h170v25h40c14.5,0,28.1-3.6,40-10v-13c0-20.2,13-42,13-42c0,0-13-22.3-13-42v-83V510.8
		c-29.6-1.4-57.2-10.6-80.7-25.7C809.6,470.5,780.8,462,750,462s-59.6,8.5-84.3,23.2c-23.5,15-51.1,24.2-80.7,25.7V567h104.8
		c15.4-15.4,36.7-25,60.2-25c46.9,0,85,38.1,85,85v85H665v-25h-40c-14.5,0-28.1,3.6-40,10v13c0,19.7-13,42-13,42c0,0,13,21.8,13,42
		v123c0,23.4-2.3,46-8.4,67.4c34.7,26,75.5,44.3,119.8,52.6c-20-35.5-31.4-76.4-31.4-120V792z"/>
	<path d="M1016.8,667.7c-15-23.5-24.2-51.1-25.7-80.7H935v104.8c15.4,15.4,25,36.7,25,60.2c0,46.9-38.1,85-85,85h-83
		c-20.2,0-42-13-42-13c0,0-22.3,13-42,13h-23v80h23c19.7,0,42,13,42,13c0,0,21.8-13,42-13h83h116.2c1.4-29.6,10.6-57.2,25.7-80.7
		c14.7-24.7,23.2-53.5,23.2-84.3S1031.5,692.4,1016.8,667.7z"/>
	<path d="M625,667h83c19.7,0,42,13,42,13c0,0,21.8-13,42-13h23v-40c0-14.5-3.6-28.1-10-40h-13c-20.2,0-42-13-42-13
		c0,0-22.3,13-42,13h-83H508.8c-1.4,29.6-10.6,57.1-25.6,80.6C468.5,692.3,460,721.1,460,752c0,30.8,8.5,59.6,23.2,84.3
		c15,23.5,24.2,51.1,25.7,80.7H565V812.2c-15.4-15.4-25-36.7-25-60.2C540,705.1,578.1,667,625,667z"/>
</g>
</svg>
