<svg width="686" height="689" xmlns="http://www.w3.org/2000/svg">

 <g>
  <title>background</title>
  <rect fill="none" id="canvas_background" height="691" width="688" y="-1" x="-1"/>
 </g>
 <g>
  <title>Layer 1</title>
  <g stroke="null" id="svg_1">
   <path stroke="null" id="svg_2" d="m440.698535,567.698998c-3.290101,43.150971 -15.627981,83.672242 -35.486093,119.531775c52.054103,-9.921137 99.055551,-31.795452 139.829307,-62.873713c-5.170159,-18.288362 -7.755239,-37.174382 -8.812771,-56.658061l-95.530442,0z"/>
   <path stroke="null" id="svg_3" d="m241.882411,394.377925l199.756153,0l0,29.882944l47.001448,0c17.038025,0 33.018517,-4.303144 47.001448,-11.953177l0,-15.539131c0,-24.145418 15.27547,-50.203345 15.27547,-50.203345c0,0 -15.27547,-26.655586 -15.27547,-50.203345l0,-99.211373l0,-138.895922c-34.781071,-1.673445 -67.21207,-12.670368 -94.825421,-30.719666c-29.023394,-17.451639 -62.864436,-27.61184 -99.055551,-27.61184s-70.032157,10.160201 -99.055551,27.731372c-27.613351,17.929766 -60.044349,28.926689 -94.825421,30.719666l0,67.057326l123.143793,0c18.095557,-18.407893 43.123828,-29.882944 70.737179,-29.882944c55.109197,0 99.878076,45.541606 99.878076,101.602008l0,101.602008l-199.756153,0l0,-29.882944l-47.001448,0c-17.038025,0 -33.018517,4.303144 -47.001448,11.953177l0,15.539131c0,23.54776 -15.27547,50.203345 -15.27547,50.203345c0,0 15.27547,26.057927 15.27547,50.203345l0,147.024083c0,27.970435 -2.702583,54.984616 -9.870304,80.564416c40.773756,31.078261 88.715232,52.952576 140.769336,62.873713c-23.500724,-42.43378 -36.896136,-91.322276 -36.896136,-143.438129l0,-149.414718z"/>
   <path stroke="null" id="svg_4" d="m655.260144,245.799929c-17.625543,-28.089967 -28.435876,-61.080737 -30.19843,-96.462142l-65.91953,0l0,125.2693c18.095557,18.407893 29.375905,43.868161 29.375905,71.958128c0,56.060402 -44.768879,101.602008 -99.878076,101.602008l-97.528004,0c-23.735731,0 -49.35152,-15.539131 -49.35152,-15.539131c0,0 -26.203307,15.539131 -49.35152,15.539131l-27.025832,0l0,95.62542l27.025832,0c23.148213,0 49.35152,15.539131 49.35152,15.539131c0,0 25.615789,-15.539131 49.35152,-15.539131l97.528004,0l136.539206,0c1.645051,-35.381405 12.455384,-68.372175 30.19843,-96.462142c17.273032,-29.524348 27.26084,-63.949499 27.26084,-100.765286s-10.105311,-71.240938 -27.378343,-100.765286z"/>
   <path stroke="null" id="svg_5" d="m194.880964,244.963206l97.528004,0c23.148213,0 49.35152,15.539131 49.35152,15.539131c0,0 25.615789,-15.539131 49.35152,-15.539131l27.025832,0l0,-47.81271c0,-17.332107 -4.23013,-33.588429 -11.750362,-47.81271l-15.27547,0c-23.735731,0 -49.35152,-15.539131 -49.35152,-15.539131c0,0 -26.203307,15.539131 -49.35152,15.539131l-97.528004,0l-136.539206,0c-1.645051,35.381405 -12.455384,68.252643 -30.080927,96.34261c-17.273032,29.524348 -27.26084,63.949499 -27.26084,100.884818c0,36.815787 9.987808,71.240938 27.26084,100.765286c17.625543,28.089967 28.435876,61.080737 30.19843,96.462142l65.91953,0l0,-125.2693c-18.095557,-18.407893 -29.375905,-43.868161 -29.375905,-71.958128c0,-56.060402 44.768879,-101.602008 99.878076,-101.602008z"/>
  </g>
 </g>
</svg>