<!-- Generated by IcoMoon.io -->
<svg version="1.1" xmlns="http://www.w3.org/2000/svg" width="512" height="512" viewBox="0 0 512 512">
<title></title>
<g id="icomoon-ignore">
</g>
<path d="M148.5 102.6c15.1 0 28.7 1.3 41.1 4 12.4 2.6 22.9 7 31.8 13 8.8 6 15.6 14 20.6 24 4.8 9.9 7.2 22.3 7.2 37 0 15.9-3.6 29.1-10.8 39.7-7.3 10.6-17.9 19.2-32.1 26 19.4 5.6 33.7 15.4 43.3 29.3 9.6 14 14.2 30.8 14.2 50.6 0 16-3.1 29.7-9.2 41.3-6.2 11.7-14.6 21.2-24.9 28.5-10.4 7.4-22.4 12.8-35.8 16.3-13.3 3.5-27 5.3-41.2 5.3h-152.7v-315h148.5zM139.5 229.8c12.3 0 22.5-2.9 30.5-8.8 8-5.8 11.8-15.4 11.8-28.6 0-7.3-1.3-13.4-3.9-18.1-2.7-4.7-6.2-8.4-10.7-11-4.4-2.7-9.4-4.5-15.3-5.5-5.7-1.1-11.7-1.6-17.8-1.6h-64.8v73.6h70.2zM143.3 363.9c6.8 0 13.3-0.6 19.4-2 6.2-1.4 11.7-3.5 16.3-6.7 4.6-3.1 8.5-7.2 11.3-12.6 2.8-5.3 4.1-12.1 4.1-20.4 0-16.2-4.6-27.8-13.7-34.8-9.1-6.9-21.2-10.3-36.2-10.3h-75.2v86.7h74z"></path>
<path d="M362.6 362.8c9.4 9.2 22.9 13.8 40.5 13.8 12.6 0 23.6-3.2 32.7-9.6s14.6-13.2 16.7-20.2h55.2c-8.9 27.5-22.3 47-40.7 58.8-18.1 11.8-40.3 17.8-66 17.8-18 0-34.1-2.9-48.6-8.6-14.5-5.8-26.6-13.9-36.8-24.5-9.9-10.6-17.7-23.2-23.2-38-5.4-14.7-8.2-31-8.2-48.6 0-17.1 2.8-33 8.4-47.7 5.7-14.8 13.5-27.5 23.9-38.2s22.6-19.2 37-25.4c14.3-6.2 30.1-9.3 47.6-9.3 19.3 0 36.2 3.7 50.7 11.3 14.4 7.5 26.3 17.6 35.6 30.2s15.9 27.1 20 43.3c4.1 16.2 5.5 33.1 4.4 50.8h-164.7c0 17.9 6 35 15.5 44.1zM434.5 243c-7.4-8.2-20.1-12.7-35.4-12.7-10 0-18.3 1.7-24.9 5.1-6.5 3.4-11.8 7.6-15.9 12.6-4 5-6.8 10.4-8.4 16.1-1.6 5.5-2.6 10.6-2.9 15h102c-1.5-16-7-27.8-14.5-36.1z"></path>
<path d="M334.2 128h127.7v31.1h-127.7v-31.1z"></path>
</svg>
