<?xml version="1.0" standalone="no"?>
<!DOCTYPE svg PUBLIC "-//W3C//DTD SVG 20010904//EN"
 "http://www.w3.org/TR/2001/REC-SVG-20010904/DTD/svg10.dtd">
<svg version="1.0" xmlns="http://www.w3.org/2000/svg"
 width="1080.000000pt" height="1080.000000pt" viewBox="0 0 1080.000000 1080.000000"
 preserveAspectRatio="xMidYMid meet">
<metadata>
Created by potrace 1.11, written by Peter Selinger 2001-2013
</metadata>
<g transform="translate(0.000000,1080.000000) scale(0.100000,-0.100000)"
fill="#000000" stroke="none">
<path d="M5249 8606 c-2 -2 -35 -7 -74 -10 -234 -23 -527 -125 -757 -264 -147
-88 -270 -143 -439 -193 -112 -33 -294 -67 -381 -70 l-58 -2 -1 -51 c0 -28 -1
-167 -2 -308 l-2 -258 593 0 594 0 58 53 c123 111 298 189 475 212 61 8 215 8
270 0 172 -24 370 -118 502 -238 125 -114 242 -310 286 -478 21 -81 21 -101
22 -643 l0 -559 -942 -1 -942 -1 -3 145 -3 145 -255 -1 c-344 -1 -398 -8 -562
-67 l-88 -31 -1 -56 c-2 -212 -27 -319 -113 -496 l-32 -67 37 -76 c48 -98 87
-215 99 -299 9 -70 7 -1757 -3 -1802 -3 -14 -8 -55 -12 -92 -3 -37 -8 -80 -11
-95 -12 -72 -37 -190 -45 -210 -7 -20 -2 -28 44 -61 310 -228 722 -418 1113
-512 166 -39 174 -41 174 -37 0 3 -31 69 -69 148 -100 209 -156 372 -205 592
-23 105 -27 130 -42 239 -3 24 -8 57 -11 73 -3 17 -8 402 -10 856 l-4 826 945
0 946 0 0 -153 0 -152 278 3 c309 3 327 6 507 82 139 59 127 43 130 174 1 63
8 137 15 164 6 28 13 58 15 67 6 30 77 200 96 231 17 30 17 31 -7 78 -36 72
-79 186 -100 264 -17 66 -18 138 -20 1205 -1 624 -3 1147 -3 1161 -1 25 -4 26
-63 28 -34 1 -65 4 -68 6 -3 2 -29 6 -58 10 -194 22 -497 133 -697 255 -199
122 -456 217 -662 245 -26 4 -59 9 -73 12 -32 6 -375 15 -381 9z"/>
<path d="M5336 7329 c-66 -35 -250 -97 -311 -106 -22 -4 -552 -6 -1178 -7
l-1138 0 -4 -21 c-2 -11 -6 -49 -9 -85 -18 -209 -90 -451 -192 -646 -53 -101
-67 -128 -75 -134 -8 -7 -92 -171 -123 -240 -49 -112 -94 -266 -122 -420 -22
-118 -25 -457 -6 -570 47 -272 116 -459 264 -710 152 -259 247 -555 259 -813
l3 -47 315 2 316 3 0 578 1 578 -46 47 c-133 140 -200 288 -226 503 -64 526
285 1002 796 1083 53 9 239 12 625 11 l550 -2 85 -26 c86 -26 245 -90 266
-108 7 -6 26 -1 55 14 63 34 193 83 269 103 46 12 116 18 235 20 94 1 176 3
184 3 11 1 12 50 8 284 -5 304 -11 343 -77 497 -41 97 -39 95 -142 97 -74 1
-184 11 -208 18 -3 1 -12 4 -20 7 -8 3 -35 11 -60 19 -25 7 -87 32 -139 56
-51 24 -94 43 -95 43 0 -1 -28 -15 -60 -31z"/>
<path d="M7459 7206 c-1 -6 -2 -271 -3 -590 l-1 -578 36 -33 c77 -69 160 -201
197 -310 38 -113 47 -175 45 -335 -1 -157 -14 -228 -65 -360 -46 -121 -152
-268 -255 -356 -139 -118 -270 -181 -453 -220 -59 -13 -1105 -16 -1184 -4 -89
13 -199 49 -297 98 l-77 37 -78 -37 c-171 -81 -294 -108 -500 -108 l-154 0 0
-440 0 -440 168 0 c213 0 312 -22 487 -106 l75 -36 73 36 c82 40 232 91 292
99 22 4 554 6 1182 7 l1143 0 4 23 c3 12 8 51 11 87 8 91 40 240 74 351 40
128 97 255 184 406 152 266 221 458 260 723 14 91 16 436 4 486 -3 12 -8 38
-11 58 -3 20 -9 52 -12 72 -26 163 -133 433 -239 604 -91 146 -191 382 -219
520 -28 134 -33 163 -42 257 -4 37 -8 75 -9 83 -2 13 -45 15 -318 16 -215 0
-317 -3 -318 -10z"/>
<path d="M6345 3310 c-3 -5 -7 -33 -20 -149 -4 -30 -9 -63 -11 -75 -2 -11 -6
-38 -9 -61 -11 -76 -68 -290 -105 -400 -44 -125 -85 -223 -148 -344 -24 -46
-41 -86 -38 -89 16 -15 402 96 581 168 105 42 286 130 394 192 112 64 341 217
341 228 0 5 -9 46 -20 92 -31 135 -42 206 -56 363 -3 39 -8 72 -10 74 -6 6
-895 7 -899 1z"/>
</g>
</svg>
